<svg width="24" height="24" viewBox="0 0 24 24" fill="none" xmlns="http://www.w3.org/2000/svg">
<path fill-rule="evenodd" clip-rule="evenodd" d="M3.79978 5.10294C3.5 5.99737 3.5 7.10257 3.5 9.31296V18.0859C3.5 20.3627 3.5 21.501 3.9189 22.103C4.43064 22.8385 5.32253 23.2362 6.23158 23.1342C6.97569 23.0508 7.86724 22.3099 9.65032 20.8283C10.4352 20.1761 10.8277 19.8499 11.2588 19.7023C11.7869 19.5214 12.3631 19.5214 12.8912 19.7023C13.3223 19.8499 13.7148 20.176 14.4997 20.8283C16.2827 22.3099 17.1743 23.0508 17.9184 23.1342C18.8275 23.2362 19.7194 22.8385 20.2311 22.103C20.65 21.501 20.65 20.3627 20.65 18.0859V9.31296C20.65 7.10257 20.65 5.99737 20.3502 5.10294C19.7443 3.29524 18.2824 1.87798 16.4177 1.29062C15.4951 1 14.3551 1 12.075 1C9.79493 1 8.6549 1 7.73227 1.29062C5.86759 1.87798 4.40565 3.29524 3.79978 5.10294ZM8.4 7.23472C7.89259 7.23472 7.48125 7.63349 7.48125 8.1254C7.48125 8.6173 7.89259 9.01607 8.4 9.01607H15.75C16.2574 9.01607 16.6688 8.6173 16.6688 8.1254C16.6688 7.63349 16.2574 7.23472 15.75 7.23472H8.4Z" fill="#2D264B"/>
</svg>
